<?xml version="1.0" encoding="UTF-8"?>
<svg width="44px" height="44px" viewBox="0 0 44 44" version="1.1" xmlns="http://www.w3.org/2000/svg" xmlns:xlink="http://www.w3.org/1999/xlink">
    <!-- Generator: Sketch 51.3 (57544) - http://www.bohemiancoding.com/sketch -->
    <title>edit-1</title>
    <desc>Created with Sketch.</desc>
    <defs></defs>
    <g id="full" stroke="none" stroke-width="1" fill="none" fill-rule="evenodd">
        <g id="full-view" transform="translate(-213.000000, -588.000000)" fill="#787878">
            <g id="edit-1" transform="translate(210.000000, 585.000000)">
                <path d="M17.7394395,45.046089 C16.4785421,46.3069863 14.764306,47.0112587 12.9738435,47.0039743 L5.29078509,46.9727162 C4.04797004,46.9676598 3.03637041,45.9560602 3.03131408,44.7132452 L3.00005595,37.0301867 C2.99277155,35.2397242 3.69704395,33.5254881 4.95794128,32.2645908 L32.5283078,4.4782848 C34.4732976,2.51806133 37.6390984,2.50571193 39.5993219,4.45070166 C39.603937,4.4552809 39.6085431,4.45986913 39.6131403,4.46446633 L45.5395639,10.3908899 C47.4921854,12.3435114 47.4921854,15.5093363 45.5395639,17.4619577 C45.5349667,17.4665549 45.5303606,17.4711432 45.5257455,17.4757224 L17.7394395,45.046089 Z M35.3394091,7.2977945 L31.2962658,11.3091474 C30.9017081,11.705271 30.9017081,12.3430186 31.2934931,12.7363694 L37.2390498,18.7056866 C37.6351329,19.1002728 38.2703371,19.0977851 38.6605909,18.7029029 L42.7037342,14.69155 C43.0982919,14.2954264 43.0982919,13.6576787 42.7065069,13.264328 L36.7609502,7.2950108 C36.3648671,6.90042456 35.7296629,6.90291231 35.3394091,7.2977945 Z" id="Combined-Shape"></path>
            </g>
        </g>
    </g>
</svg>