<?xml version="1.0" encoding="UTF-8"?>
<svg width="48px" height="48px" viewBox="0 0 48 48" version="1.1" xmlns="http://www.w3.org/2000/svg" xmlns:xlink="http://www.w3.org/1999/xlink">
	<path d="M32.0604851,26.8465072 L40.5166979,37.4167732 C41.2187264,38.2943089 41.1486605,39.5593758 40.3540182,40.3540182 C39.5593758,41.1486605 38.2943089,41.2187264 37.4167732,40.5166979 L26.8465072,32.0604851 C25.7669743,31.1968588 24.2330257,31.1968588 23.1534928,32.0604851 L12.5832268,40.5166979 C11.7056911,41.2187264 10.4406242,41.1486605 9.64598184,40.3540182 C8.8513395,39.5593758 8.78127359,38.2943089 9.48330212,37.4167732 L17.9395149,26.8465072 C18.8031412,25.7669743 18.8031412,24.2330257 17.9395149,23.1534928 L9.48330212,12.5832268 C8.78127359,11.7056911 8.8513395,10.4406242 9.64598184,9.64598184 C10.4406242,8.8513395 11.7056911,8.78127359 12.5832268,9.48330212 L23.1534928,17.9395149 C24.2330257,18.8031412 25.7669743,18.8031412 26.8465072,17.9395149 L37.4167732,9.48330212 C38.2943089,8.78127359 39.5593758,8.8513395 40.3540182,9.64598184 C41.1486605,10.4406242 41.2187264,11.7056911 40.5166979,12.5832268 L32.0604851,23.1534928 C31.1968588,24.2330257 31.1968588,25.7669743 32.0604851,26.8465072 Z" id="Combined-Shape"></path>
</svg>
