<?xml version="1.0" encoding="UTF-8"?>
<svg width="50px" height="50px" viewBox="0 0 50 50" version="1.1" xmlns="http://www.w3.org/2000/svg" xmlns:xlink="http://www.w3.org/1999/xlink">
	<path d="M27.4282102,37.6891817 L27.8856785,33.2974863 C28.0217873,31.9908416 29.0938317,31 30.3714514,31 L33.846154,31 C34.4834055,31 35,30.4531724 35,29.7786263 C35,29.4650062 34.8860291,29.1634038 34.6816976,28.9362996 L26.2533166,19.5685739 C25.5940908,18.8358773 24.4985543,18.8075932 23.8063673,19.5053994 C23.7927832,19.5190938 20.9634289,22.6627272 15.3183045,28.9362996 C14.8788207,29.424764 14.8966343,30.1978651 15.3580923,30.6630693 C15.5726403,30.8793591 15.8575676,31 16.1538482,31 L19.6285486,31 C20.9061683,31 21.9782127,31.9908416 22.1143215,33.2974863 L22.5717898,37.6891817 C22.7434499,39.3371195 21.5466905,40.812195 19.8987528,40.9838552 C19.7954958,40.9946112 19.6917502,41 19.5879345,41 L16,41 C8.82029825,41 3,35.1797017 3,28 C3,22.2008097 6.79723223,17.2885104 12.0409553,15.6138437 C14.9486796,11.6062339 19.6699805,9 25,9 C32.3691046,9 38.5746503,13.981788 40.4324859,20.761213 C44.2831691,22.3176063 47,26.0915282 47,30.5 C47,36.2989899 42.2989899,41 36.5,41 L30.4120655,41 C28.7552112,41 27.4120655,39.6568542 27.4120655,38 C27.4120655,37.8961844 27.4174543,37.7924387 27.4282102,37.6891817 Z" id="Combined-Shape"></path>
</svg>
